HIERARCHY
ROOT Hips
{
	OFFSET 0.00000 0.00000 0.00000
	CHANNELS 6 Xposition Yposition Zposition Zrotation Yrotation Xrotation 
	JOINT LHipJoint
	{
		OFFSET 0 0 0
		CHANNELS 3 Zrotation Yrotation Xrotation
		JOINT LeftUpLeg
		{
			OFFSET 1.58895 -1.83665 0.71753
			CHANNELS 3 Zrotation Yrotation Xrotation
			JOINT LeftLeg
			{
				OFFSET 2.50528 -6.88321 0.00000
				CHANNELS 3 Zrotation Yrotation Xrotation
				JOINT LeftFoot
				{
					OFFSET 2.63244 -7.23257 0.00000
					CHANNELS 3 Zrotation Yrotation Xrotation
					JOINT LeftToeBase
					{
						OFFSET 0.23691 -0.65090 1.72750
						CHANNELS 3 Zrotation Yrotation Xrotation
						End Site
						{
							OFFSET 0.00000 -0.00000 0.92561
						}
					}
				}
			}
		}
	}
	JOINT RHipJoint
	{
		OFFSET 0 0 0
		CHANNELS 3 Zrotation Yrotation Xrotation
		JOINT RightUpLeg
		{
			OFFSET -1.51435 -1.83665 0.71753
			CHANNELS 3 Zrotation Yrotation Xrotation
			JOINT RightLeg
			{
				OFFSET -2.54551 -6.99375 0.00000
				CHANNELS 3 Zrotation Yrotation Xrotation
				JOINT RightFoot
				{
					OFFSET -2.66027 -7.30903 0.00000
					CHANNELS 3 Zrotation Yrotation Xrotation
					JOINT RightToeBase
					{
						OFFSET -0.22981 -0.63138 2.03959
						CHANNELS 3 Zrotation Yrotation Xrotation
						End Site
						{
							OFFSET -0.00000 -0.00000 1.07060
						}
					}
				}
			}
		}
	}
	JOINT LowerBack
	{
		OFFSET 0 0 0
		CHANNELS 3 Zrotation Yrotation Xrotation
		JOINT Spine
		{
			OFFSET -0.02651 1.86275 -0.11152
			CHANNELS 3 Zrotation Yrotation Xrotation
			JOINT Spine1
			{
				OFFSET 0.01019 1.86224 0.04087
				CHANNELS 3 Zrotation Yrotation Xrotation
				JOINT Neck
				{
					OFFSET 0 0 0
					CHANNELS 3 Zrotation Yrotation Xrotation
					JOINT Neck1
					{
						OFFSET -0.01926 1.80512 0.08867
						CHANNELS 3 Zrotation Yrotation Xrotation
						JOINT Head
						{
							OFFSET 0.05516 1.76451 -0.38475
							CHANNELS 3 Zrotation Yrotation Xrotation
							End Site
							{
								OFFSET 0.01592 1.82587 -0.14001
							}
						}
					}
				}
				JOINT LeftShoulder
				{
					OFFSET 0 0 0
					CHANNELS 3 Zrotation Yrotation Xrotation
					JOINT LeftArm
					{
						OFFSET 3.47116 1.51376 0.14491
						CHANNELS 3 Zrotation Yrotation Xrotation
						JOINT LeftForeArm
						{
							OFFSET 4.78095 -0.00000 0.00000
							CHANNELS 3 Zrotation Yrotation Xrotation
							JOINT LeftHand
							{
								OFFSET 3.58615 -0.00000 -0.00000
								CHANNELS 3 Zrotation Yrotation Xrotation
								JOINT LeftFingerBase
								{
									OFFSET 0 0 0
									CHANNELS 3 Zrotation Yrotation Xrotation
									JOINT LeftHandIndex1
									{
										OFFSET 0.65981 -0.00000 0.00000
										CHANNELS 3 Zrotation Yrotation Xrotation
										End Site
										{
											OFFSET 0.53196 -0.00000 0.00000
										}
									}
								}
								JOINT LThumb
								{
									OFFSET 0 0 0
									CHANNELS 3 Zrotation Yrotation Xrotation
									End Site
									{
										OFFSET 0.54008 -0.00000 0.54008
									}
								}
							}
						}
					}
				}
				JOINT RightShoulder
				{
					OFFSET 0 0 0
					CHANNELS 3 Zrotation Yrotation Xrotation
					JOINT RightArm
					{
						OFFSET -3.31725 1.61216 0.35156
						CHANNELS 3 Zrotation Yrotation Xrotation
						JOINT RightForeArm
						{
							OFFSET -4.48913 -0.00000 0.00000
							CHANNELS 3 Zrotation Yrotation Xrotation
							JOINT RightHand
							{
								OFFSET -3.70510 -0.00000 0.00000
								CHANNELS 3 Zrotation Yrotation Xrotation
								JOINT RightFingerBase
								{
									OFFSET 0 0 0
									CHANNELS 3 Zrotation Yrotation Xrotation
									JOINT RightHandIndex1
									{
										OFFSET -0.44914 -0.00000 0.00000
										CHANNELS 3 Zrotation Yrotation Xrotation
										End Site
										{
											OFFSET -0.36211 -0.00000 0.00000
										}
									}
								}
								JOINT RThumb
								{
									OFFSET 0 0 0
									CHANNELS 3 Zrotation Yrotation Xrotation
									End Site
									{
										OFFSET -0.36763 -0.00000 0.36763
									}
								}
							}
						}
					}
				}
			}
		}
	}
}
MOTION
Frames: 7
Frame Time: .0083333
-0.7704 18.6543 6.2683 0 0 0 0 0 0 -21 0 0 0 0 0 0 0 0 0 0 0 0 0 0 21 0 0 0 0 0 0 0 0 0 0 0 0 0 0 0 0 0 0 0 0 0 0 -16 0 0 21 0 0 11 0 0 0 -8 0 0 0 0 0 0 0 0 0 0 0 0 0 0 0 0 0 0 0 0 8 0 0 0 0 0 0 0 0 0 0 0 0 0 0 0 0 0
-0.7704 18.6543 6.2683 -3.9494 -4.7150 3.2439 0.0000 0.0000 0.0000 -11.1624 -9.7698 -0.4092 1.3255 7.2912 20.5811 2.2208 8.0498 -31.9426 7.9907 -16.1124 -52.5293 0.0000 0.0000 0.0000 0.0000 0.0000 0.0000 0.0000 0.0000 0.0000 -0.0000 -0.0000 0.0000 -0.0000 -0.0000 0.0000 2.4324 0.1007 -2.7550 1.7540 0.0716 -1.5274 0.4354 0.0276 -0.0208 -2.3393 0.5718 -13.1971 2.3470 0.7672 22.8099 1.2922 0.4109 9.3339 -0.0000 -0.0000 0.0000 -94.5015 15.5290 21.8349 24.3209 -35.5018 -7.8922 -0.0000 -0.0000 2.7081 8.6093 -25.7302 -3.7605 -7.1250 0.0000 -0.0000 -12.7649 4.5352 12.0240 -0.0000 -0.0000 0.0000 90.9775 -17.8424 19.2753 -24.4951 35.6834 -7.9935 0.0000 0.0000 20.2654 -4.8870 -38.0049 3.0136 7.1250 -0.0000 -0.0000 37.3793 -64.2517 -18.6657
-0.7702 18.6542 6.2691 -3.9609 -4.7250 3.2541 0.0000 0.0000 0.0000 -11.1392 -9.7265 -0.4413 1.3273 7.2958 20.5948 2.2240 7.9938 -31.9281 7.9719 -16.0985 -52.4613 0.0000 0.0000 0.0000 0.0000 0.0000 0.0000 0.0000 0.0000 0.0000 -0.0000 -0.0000 0.0000 -0.0000 -0.0000 0.0000 2.4536 0.1066 -2.7666 1.7537 0.0785 -1.5282 0.4235 0.0310 -0.0151 -2.2886 0.5850 -13.1479 2.2707 0.7919 22.7508 1.2592 0.4186 9.3041 0.0000 -0.0000 0.0000 -94.5097 15.5028 21.7872 24.2924 -35.4719 -7.8756 -0.0000 -0.0000 2.7938 8.5359 -25.7497 -3.7307 -7.1250 0.0000 -0.0000 -12.8094 4.5239 12.0708 0.0000 -0.0000 0.0000 90.9941 -17.8231 19.2440 -24.4808 35.6685 -7.9852 0.0000 0.0000 20.2667 -4.8375 -38.0099 2.9833 7.1250 -0.0000 -0.0000 37.4357 -64.2420 -18.6895
-0.7747 18.6593 6.2602 -3.9609 -4.5395 3.5332 0.0000 0.0000 0.0000 -10.9406 -9.4395 -0.9975 1.3275 7.2964 20.5965 2.1609 7.7555 -31.4094 8.0462 -16.1531 -52.7290 0.0000 0.0000 0.0000 0.0000 0.0000 0.0000 0.0000 0.0000 0.0000 -0.0000 -0.0000 0.0000 -0.0000 -0.0000 0.0000 2.3836 0.0534 -2.8946 1.7720 0.0075 -1.6411 0.4797 -0.0049 -0.0599 -2.2301 0.6025 -13.0974 2.1569 0.8302 22.6623 1.2133 0.4292 9.2639 0.0000 0.0000 0.0000 -94.5253 15.4982 21.7711 24.2905 -35.4699 -7.8745 -0.0000 -0.0000 2.8160 8.5244 -25.7550 -3.7264 -7.1250 0.0000 -0.0000 -12.8164 4.5199 12.0788 0.0000 0.0000 0.0000 90.9912 -17.8126 19.2283 -24.4740 35.6615 -7.9812 0.0000 0.0000 20.2812 -4.8361 -38.0023 2.9820 7.1250 -0.0000 -0.0000 37.4268 -64.2357 -18.6790
-0.7894 18.6765 6.2335 -3.8444 -3.9521 4.3527 0.0000 0.0000 0.0000 -10.5767 -8.9926 -2.4804 1.3275 7.2965 20.5969 2.0195 7.1917 -30.2063 8.1769 -16.2478 -53.1974 0.0000 0.0000 0.0000 0.0000 0.0000 0.0000 0.0000 0.0000 0.0000 -0.0000 -0.0000 0.0000 -0.0000 -0.0000 0.0000 2.0241 -0.1397 -3.2617 1.8068 -0.2443 -1.9882 0.7094 -0.1304 -0.2110 -2.2233 0.6124 -13.0862 2.1355 0.8476 22.6416 1.2065 0.4357 9.2543 -0.0000 0.0000 0.0000 -94.5434 15.5075 21.7502 24.2891 -35.4685 -7.8737 -0.0000 -0.0000 2.8101 8.5488 -25.7397 -3.7351 -7.1250 0.0000 -0.0000 -12.8014 4.5323 12.0608 -0.0000 0.0000 0.0000 90.9734 -17.8370 19.2660 -24.4921 35.6804 -7.9918 0.0000 0.0000 20.2916 -5.0180 -37.8998 3.0874 7.1250 -0.0000 -0.0000 37.1088 -64.2056 -18.4729
-0.7885 18.6757 6.2369 -3.8048 -3.9629 4.3069 0.0000 0.0000 0.0000 -10.6469 -9.0367 -2.3941 1.3277 7.2970 20.5982 2.0328 7.1887 -30.2881 8.1558 -16.2327 -53.1220 0.0000 0.0000 0.0000 0.0000 0.0000 0.0000 0.0000 0.0000 0.0000 -0.0000 -0.0000 0.0000 -0.0000 -0.0000 0.0000 1.9938 -0.1342 -3.2540 1.7982 -0.2363 -1.9681 0.7177 -0.1261 -0.1946 -2.2541 0.6059 -13.0914 2.1594 0.8401 22.6458 1.2191 0.4321 9.2566 -0.0000 0.0000 0.0000 -94.5558 15.5087 21.7547 24.2808 -35.4597 -7.8688 -0.0000 -0.0000 2.7923 8.5707 -25.7134 -3.7412 -7.1250 0.0000 -0.0000 -12.7876 4.5557 12.0414 -0.0000 0.0000 0.0000 90.9772 -17.8403 19.2509 -24.5052 35.6939 -7.9994 0.0000 0.0000 20.3035 -5.0260 -37.8660 3.0900 7.1250 -0.0000 -0.0000 37.0558 -64.1813 -18.4223
-0.7878 18.6754 6.2392 -3.7734 -3.9492 4.3106 0.0000 0.0000 0.0000 -10.6689 -8.9409 -2.4332 1.3269 7.2950 20.5922 2.0220 7.1159 -30.1776 8.1582 -16.2344 -53.1304 0.0000 0.0000 0.0000 0.0000 0.0000 0.0000 0.0000 0.0000 0.0000 -0.0000 -0.0000 0.0000 -0.0000 -0.0000 0.0000 1.9694 -0.1399 -3.2960 1.7921 -0.2451 -1.9538 0.7247 -0.1300 -0.1563 -2.2485 0.6097 -13.0871 2.1333 0.8505 22.6149 1.2101 0.4348 9.2450 -0.0000 0.0000 0.0000 -94.5541 15.5119 21.7841 24.2933 -35.4729 -7.8761 -0.0000 -0.0000 2.7527 8.6397 -25.6701 -3.7658 -7.1250 0.0000 -0.0000 -12.7451 4.5907 11.9907 -0.0000 0.0000 0.0000 90.9811 -17.8019 19.2264 -24.4856 35.6736 -7.9880 0.0000 0.0000 20.3412 -4.9182 -37.8840 3.0247 7.1250 -0.0000 -0.0000 37.1879 -64.1660 -18.4838
